<?xml version="1.0" standalone="no"?>
<!DOCTYPE svg PUBLIC "-//W3C//DTD SVG 20010904//EN"
 "http://www.w3.org/TR/2001/REC-SVG-20010904/DTD/svg10.dtd">
<svg version="1.0" xmlns="http://www.w3.org/2000/svg"
 width="2048.000000pt" height="2048.000000pt" viewBox="0 0 2048.000000 2048.000000"
 preserveAspectRatio="xMidYMid meet">
<metadata>
Created by potrace 1.14, written by Peter Selinger 2001-2017
</metadata>
<g transform="translate(0.000000,2048.000000) scale(0.100000,-0.100000)"
fill="#000000" stroke="none">
<path d="M0 10240 l0 -10240 10240 0 10240 0 0 10240 0 10240 -10240 0 -10240
0 0 -10240z m12865 7955 c615 -50 1092 -143 1549 -301 956 -330 1591 -924
1807 -1692 216 -771 22 -1661 -557 -2542 -342 -521 -875 -1072 -1444 -1491
-822 -606 -1799 -1056 -2861 -1319 -200 -50 -602 -130 -800 -160 l-146 -22 68
-207 c37 -113 147 -476 244 -806 429 -1458 713 -2272 1075 -3086 367 -821 754
-1475 1194 -2012 288 -353 577 -620 911 -842 441 -294 910 -451 1405 -472 246
-10 324 14 681 203 118 62 244 126 279 140 68 28 153 34 190 14 58 -31 88
-194 55 -305 -80 -276 -505 -665 -923 -845 -291 -126 -515 -177 -822 -187
-674 -22 -1402 154 -2003 484 -370 204 -690 446 -1018 773 -547 545 -984 1174
-1434 2065 -337 668 -623 1366 -1065 2600 -188 524 -420 1136 -440 1158 -16
18 -602 -1629 -850 -2388 -317 -969 -461 -1528 -489 -1897 -10 -129 -28 -170
-95 -215 -150 -102 -447 -107 -803 -13 -494 131 -894 421 -1034 750 -122 287
-70 590 261 1520 160 450 318 862 1020 2655 911 2329 1497 4086 1824 5470 86
362 191 884 184 906 -4 12 -301 -224 -518 -410 -1270 -1092 -2348 -2538 -2723
-3652 -106 -315 -145 -518 -154 -791 -6 -210 5 -370 43 -573 31 -174 69 -304
159 -551 100 -272 101 -311 11 -335 -191 -52 -581 151 -872 453 -401 416 -658
951 -768 1598 -39 232 -50 369 -51 630 0 266 6 317 66 530 126 451 446 1011
882 1545 900 1101 2246 2130 3637 2780 1077 503 2124 783 3200 855 191 13 905
4 1125 -15z"/>
<path d="M12130 17593 c-569 -43 -1159 -217 -1818 -536 l-133 -64 103 -63
c553 -340 939 -760 938 -1024 -1 -175 -202 -731 -1319 -3645 -138 -360 -250
-655 -248 -656 1 -1 47 2 102 6 1272 101 2296 472 3125 1133 167 133 490 457
623 626 514 648 787 1383 789 2120 0 307 -33 532 -118 797 -127 397 -372 742
-685 966 -118 84 -341 196 -483 242 -259 84 -581 120 -876 98z"/>
</g>
</svg>
